PathFileType	4	(X/Y/Z)	s01c0301.trc
DataRate	CameraRate	NumFrames	NumMarkers	Units	OrigDataRate	OrigDataStartFrame	OrigNumFrames
200	200	4	48	mm	200	750	2000
Frame#	Time	racr			lacr			c7			jug			rlel			rdr			llel			ldr			s2			lic			ric			lasi			rasi			rpsi			lpsi			rgt			lgt			rth1			rth2			rth3			rth4			rlfc			rsh1			rsh2			rsh3			rsh4			rlmal			rmmal			rcal			rtoe			rmt5			lth1			lth2			lth4			lth3			llfc			lsh1			lsh2			lsh3			lsh4			llmal			lmmal			lcal			ltoe			lmt5			SBIKE			LBIKE			RBIKE			
		X1	Y1	Z1	X2	Y2	Z2	X3	Y3	Z3	X4	Y4	Z4	X5	Y5	Z5	X6	Y6	Z6	X7	Y7	Z7	X8	Y8	Z8	X9	Y9	Z9	X10	Y10	Z10	X11	Y11	Z11	X12	Y12	Z12	X13	Y13	Z13	X14	Y14	Z14	X15	Y15	Z15	X16	Y16	Z16	X17	Y17	Z17	X18	Y18	Z18	X19	Y19	Z19	X20	Y20	Z20	X21	Y21	Z21	X22	Y22	Z22	X23	Y23	Z23	X24	Y24	Z24	X25	Y25	Z25	X26	Y26	Z26	X27	Y27	Z27	X28	Y28	Z28	X29	Y29	Z29	X30	Y30	Z30	X31	Y31	Z31	X32	Y32	Z32	X33	Y33	Z33	X34	Y34	Z34	X35	Y35	Z35	X36	Y36	Z36	X37	Y37	Z37	X38	Y38	Z38	X39	Y39	Z39	X40	Y40	Z40	X41	Y41	Z41	X42	Y42	Z42	X43	Y43	Z43	X44	Y44	Z44	X45	Y45	Z45	X46	Y46	Z46	X47	Y47	Z47	X48	Y48	Z48	
750	3.7500	718.519287	1364.202881	-78.639557	757.608215	1307.874146	-409.648651	715.689392	1415.618652	-248.534515	695.031006	1250.500366	-237.069443	617.812012	1091.628906	17.726400	731.164001	866.727722	-57.408688	651.325562	1069.992065	-552.725342	733.644836	859.856567	-443.006866	168.775284	1233.327881	-263.178253	336.432861	1234.046509	-439.673004	323.828339	1213.763794	-108.217255	331.366089	1177.917603	-415.421112	352.181274	1166.912720	-142.343613	203.138870	1268.071411	-211.160507	197.920486	1277.272949	-316.716766	270.544617	1103.328857	-87.314140	270.653534	1101.196533	-462.783356	334.571808	986.679504	-73.823105	381.942444	918.931641	-80.821030	427.982483	841.954590	-94.299438	427.646942	947.885315	-96.936325	464.800629	734.054321	-117.334892	416.502899	624.655518	-77.550430	391.060852	543.648560	-79.586823	356.120483	462.274414	-86.371384	431.827728	529.358582	-122.286247	293.076385	350.959961	-99.843208	340.029449	357.112915	-177.439529	244.160950	334.168152	-150.625656	498.814056	240.178085	-130.064423	389.004913	240.661682	-62.548481	327.730347	990.763367	-475.712433	391.751801	928.542969	-475.379211	428.814331	964.867920	-462.684540	443.639252	861.787964	-464.248718	473.338531	754.041565	-444.536377	364.594208	712.962891	-473.849701	293.115662	665.482422	-462.168274	219.928955	623.022949	-444.019043	325.722778	623.803711	-430.753235	113.895317	561.482117	-420.073669	141.622955	546.385864	-341.053864	62.559368	578.089478	-374.758728	201.117722	336.729187	-369.734985	125.694717	409.679138	-440.177490	-222.500610	893.369873	-248.834869	-11.962921	84.692535	-453.800781	-20.143436	80.761597	-53.709221	
751	3.7550	719.771545	1363.726562	-79.742012	757.463379	1308.720947	-410.775055	716.709534	1415.676270	-248.899124	695.686279	1250.447754	-238.001770	620.873718	1090.673218	17.254059	731.745300	865.643738	-57.578091	650.965820	1069.697021	-553.336853	733.526550	860.158142	-442.823212	169.532700	1232.551270	-260.750946	336.313324	1234.833008	-437.918945	325.384003	1212.436157	-106.974739	331.771149	1178.326904	-413.628357	353.248352	1165.513550	-140.578323	204.407227	1266.845093	-208.709122	198.432434	1277.060913	-313.723633	269.965027	1101.232544	-86.371643	271.874969	1102.655273	-461.775726	331.716797	983.672119	-72.580055	377.340057	914.732178	-79.490646	421.431641	836.563965	-92.934357	423.811340	942.468201	-95.455894	456.412476	727.482300	-115.833717	409.022797	617.543335	-76.131233	384.841248	536.199585	-78.355118	351.124298	454.180359	-85.394012	425.784485	522.618774	-121.133026	289.478027	342.807495	-99.906929	336.802429	348.590363	-176.740631	241.144470	327.708527	-150.329285	493.918030	228.563217	-130.139847	384.198486	231.022171	-62.572071	330.721558	994.007874	-475.816711	396.236206	933.415710	-476.726929	432.584961	970.584839	-463.712372	449.949554	867.814270	-466.025940	480.660919	760.247681	-446.930176	371.641022	720.348206	-475.345062	299.743164	673.627014	-463.053009	225.448303	632.651794	-445.920532	332.148010	631.503662	-431.988312	120.218155	570.783569	-419.799225	148.198425	555.863647	-340.921661	69.006866	587.806091	-374.489319	206.893906	346.178986	-369.592957	131.727509	419.252075	-439.934296	-222.464127	893.396118	-248.716568	-11.937732	84.686699	-453.870392	-20.119637	80.756477	-53.697781	
752	3.7600	720.936401	1363.259033	-80.906075	757.426514	1309.849121	-412.001678	717.606201	1415.938477	-249.382477	696.328064	1250.703125	-239.061081	623.855042	1089.862061	16.574932	732.256958	864.721375	-57.805553	650.496277	1069.506836	-553.725647	733.480530	860.357483	-442.646454	170.200577	1232.008667	-258.264893	336.138489	1235.904663	-436.186249	327.183655	1211.384155	-105.729034	332.096375	1178.722778	-411.761658	354.410370	1164.103882	-138.992920	205.081009	1266.166016	-205.788666	198.838638	1276.550415	-311.141266	269.172241	1099.672363	-84.717926	272.921051	1104.326050	-460.730713	328.734497	981.036743	-71.226196	372.569183	910.830322	-77.930946	414.584961	831.488342	-91.324600	419.675201	937.366089	-93.827255	447.398865	721.168030	-114.011284	400.682373	610.846924	-74.310295	377.889069	529.033203	-76.923538	345.576324	446.553955	-84.144852	419.215454	516.326843	-119.492699	285.614075	335.161163	-99.845901	333.285095	340.908905	-175.610748	237.840256	321.845795	-149.830566	488.416290	216.966614	-130.447296	378.836548	221.641571	-62.493038	333.280975	997.491028	-475.915131	400.300873	938.570740	-478.162018	435.869995	976.457886	-464.936554	455.960327	874.217957	-467.430206	487.976166	766.723328	-449.284149	378.890503	727.850830	-476.695740	306.723297	681.824585	-463.933502	232.264191	641.310730	-446.087402	339.002014	639.253723	-433.049011	127.279640	579.920837	-419.730652	155.517715	564.955322	-340.739136	76.059830	597.044556	-374.159088	213.222763	355.097443	-369.550232	138.299194	428.426605	-439.752716	-222.423492	893.395264	-248.647659	-11.915831	84.793030	-453.790009	-20.104986	80.752525	-53.678890	
753	3.7650	721.958069	1362.888672	-82.132172	757.334412	1311.199097	-413.250671	718.379700	1416.488403	-249.837982	696.930908	1251.339966	-240.207489	626.525330	1089.069946	15.719975	732.685181	863.819214	-58.022472	650.104126	1069.504639	-553.837769	733.494080	860.599548	-442.462646	170.992615	1231.542114	-255.670471	335.860901	1236.804321	-434.445984	329.265106	1210.446167	-104.413620	332.383820	1179.235962	-409.885773	355.540649	1162.909058	-137.354263	206.285355	1265.343262	-203.192551	199.245682	1276.506836	-308.405426	268.732513	1097.757812	-83.747627	273.658325	1106.222778	-459.695740	325.663544	978.758423	-69.643776	367.495148	907.465820	-76.205368	407.512177	826.835571	-89.253822	415.469910	932.459167	-92.029198	437.661102	715.083557	-111.903297	391.565186	604.664612	-72.161781	370.272583	522.428101	-75.143349	339.516022	439.452301	-82.648010	412.136292	510.464722	-117.447250	281.522705	328.006897	-99.399826	329.483490	334.023804	-174.112030	234.282730	316.763367	-149.003433	482.281586	205.743881	-130.786118	373.069855	212.709274	-62.565346	335.548157	1001.018188	-475.959015	404.001221	943.692993	-479.352020	438.793243	982.402100	-466.147430	461.203339	880.763184	-469.383636	495.371521	773.550598	-451.609955	386.446686	735.430908	-478.012848	314.077789	689.850464	-464.703949	239.990997	649.477966	-445.339569	346.591064	647.088074	-434.601990	135.000763	588.668091	-419.672760	163.271408	573.599365	-340.612488	83.635551	605.990479	-373.833923	220.135590	363.558197	-369.420074	145.409760	437.196381	-439.552948	-222.450546	893.429871	-248.625732	-11.923641	84.745186	-453.830170	-20.095215	80.784264	-53.662758	
